<svg xmlns="http://www.w3.org/2000/svg" xmlns:xlink="http://www.w3.org/1999/xlink" fill="none" version="1.1" width="14" height="14" viewBox="0 0 14 14"><defs><clipPath id="master_svg0_136_21064"><rect x="0" y="14" width="14" height="14" rx="0"/></clipPath></defs><g transform="matrix(1,0,0,-1,0,28)" clip-path="url(#master_svg0_136_21064)"><g><path d="M7.291015625,20.31066L10.260685625,23.28033Q10.366175625,23.38582,10.504005625,23.44291Q10.641835624999999,23.5,10.791015625,23.5Q10.940195625000001,23.5,11.078025625,23.44291Q11.215855625,23.38582,11.321345625,23.28033Q11.426835624999999,23.17484,11.483925625000001,23.03701Q11.541015625,22.89918,11.541015625,22.75Q11.541015625,22.60082,11.483925625000001,22.46299Q11.426835624999999,22.32516,11.321345625,22.21967L7.821345625,18.71967Q7.7691156249999995,18.667437,7.7076956249999995,18.626398000000002Q7.6462756249999995,18.585359,7.578025625,18.55709Q7.509785625,18.528822,7.437335624999999,18.514411Q7.364885624999999,18.5,7.291015625,18.5Q7.217145625000001,18.5,7.144695625000001,18.514411Q7.072245625,18.528822,7.004005625,18.55709Q6.9357556250000005,18.585359,6.8743356250000005,18.626398000000002Q6.8129156250000005,18.667437,6.760685625,18.71967L3.260685625,22.21967Q3.155196625,22.32516,3.098105625,22.46299Q3.041015625,22.60082,3.041015625,22.75Q3.041015625,22.89918,3.098105625,23.03701Q3.155196625,23.17484,3.260685625,23.28033Q3.366174625,23.38582,3.504002625,23.44291Q3.641831625,23.5,3.791015625,23.5Q3.940199625,23.5,4.078028625,23.44291Q4.215856625,23.38582,4.321345625,23.28033L7.291015625,20.31066Z" fill-rule="evenodd" fill="#888888" fill-opacity="1"/></g></g></svg>