<svg xmlns="http://www.w3.org/2000/svg" xmlns:xlink="http://www.w3.org/1999/xlink" fill="none" version="1.1" width="16" height="16" viewBox="0 0 16 16"><g transform="matrix(-1,0,0,1,32,0)"><g></g><g transform="matrix(-0.7071067690849304,0.7071067690849304,0.7071067690849304,0.7071067690849304,42.2634556889534,-17.506096303462982)"><path d="M26,2.4L33,2.4Q33.05909,2.4,33.11705,2.411529Q33.17501,2.423058,33.22961,2.445672Q33.28421,2.468287,33.33334,2.501118Q33.38248,2.53395,33.424260000000004,2.575736Q33.46605,2.617522,33.49888,2.666658Q33.531710000000004,2.715793,33.55433,2.77039Q33.57694,2.824986,33.58847,2.882946Q33.6,2.9409052,33.6,3L33.6,10Q33.6,10.059090000000001,33.58847,10.117049999999999Q33.57694,10.17501,33.55433,10.229610000000001Q33.531710000000004,10.28421,33.49888,10.33334Q33.46605,10.382480000000001,33.424260000000004,10.42426Q33.38248,10.46605,33.33334,10.49888Q33.28421,10.53171,33.22961,10.55433Q33.17501,10.57694,33.11705,10.588470000000001Q33.05909,10.6,33,10.6Q32.9409,10.6,32.88295,10.588470000000001Q32.82499,10.57694,32.77039,10.55433Q32.71579,10.53171,32.66666,10.49888Q32.61752,10.46605,32.575739999999996,10.42426Q32.53395,10.382480000000001,32.50112,10.33334Q32.468289999999996,10.28421,32.44567,10.229610000000001Q32.42306,10.17501,32.41153,10.117049999999999Q32.4,10.059090000000001,32.4,10L32.4,3.6L26,3.6Q25.9409052,3.6,25.882946,3.588471Q25.824986,3.576942,25.77039,3.554328Q25.715793,3.531713,25.666657999999998,3.498882Q25.617522,3.46605,25.575736,3.424264Q25.53395,3.382478,25.501118,3.333342Q25.468287,3.284207,25.445672,3.22961Q25.423058,3.175014,25.411529,3.117054Q25.4,3.0590948,25.4,3Q25.4,2.9409052,25.411529,2.882946Q25.423058,2.824986,25.445672,2.77039Q25.468287,2.715793,25.501118,2.666658Q25.53395,2.617522,25.575736,2.575736Q25.617522,2.53395,25.666657999999998,2.501118Q25.715793,2.468287,25.77039,2.445672Q25.824986,2.423058,25.882946,2.411529Q25.9409052,2.4,26,2.4Z" fill-rule="evenodd" fill="#BBBBBB" fill-opacity="1"/></g></g></svg>